<?xml version="1.0" encoding="UTF-8" standalone="no"?>
<!-- Generator: Adobe Illustrator 19.1.0, SVG Export Plug-In . SVG Version: 6.00 Build 0)  -->

<svg
   xmlns:dc="http://purl.org/dc/elements/1.1/"
   xmlns:cc="http://creativecommons.org/ns#"
   xmlns:rdf="http://www.w3.org/1999/02/22-rdf-syntax-ns#"
   xmlns:svg="http://www.w3.org/2000/svg"
   xmlns="http://www.w3.org/2000/svg"
   xmlns:sodipodi="http://sodipodi.sourceforge.net/DTD/sodipodi-0.dtd"
   xmlns:inkscape="http://www.inkscape.org/namespaces/inkscape"
   version="1.1"
   id="Capa_1"
   x="0px"
   y="0px"
   viewBox="0 0 793.70079 793.70151"
   xml:space="preserve"
   sodipodi:docname="acc.svg"
   width="210mm"
   height="210mm"
   inkscape:version="0.92.4 (5da689c313, 2019-01-14)"><metadata
   id="metadata45"><rdf:RDF><cc:Work
       rdf:about=""><dc:format>image/svg+xml</dc:format><dc:type
         rdf:resource="http://purl.org/dc/dcmitype/StillImage" /><dc:title></dc:title></cc:Work></rdf:RDF></metadata><defs
   id="defs43" /><sodipodi:namedview
   pagecolor="#ffffff"
   bordercolor="#666666"
   borderopacity="1"
   objecttolerance="10"
   gridtolerance="10"
   guidetolerance="10"
   inkscape:pageopacity="0"
   inkscape:pageshadow="2"
   inkscape:window-width="1920"
   inkscape:window-height="1051"
   id="namedview41"
   showgrid="false"
   units="mm"
   inkscape:zoom="0.49166667"
   inkscape:cx="240"
   inkscape:cy="728.13559"
   inkscape:window-x="-9"
   inkscape:window-y="-9"
   inkscape:window-maximized="1"
   inkscape:current-layer="Capa_1" />
<g
   id="g8"
   transform="matrix(1.5787114,0,0,1.4224754,18.736398,45.827789)"
   style="fill:#00ffff">
	<g
   id="g6"
   style="fill:#00ffff">
		<path
   d="M 155.2,241.7 C 221.9,241.7 276,187.6 276,120.9 276,54.2 221.9,0 155.2,0 88.5,0 34.4,54.1 34.4,120.8 c 0,66.7 54.1,120.9 120.8,120.9 z M 113,168.6 c 1.1,-4 2.2,-7.9 3.4,-11.9 1.4,-4.6 2.7,-5.1 6.9,-2.9 7.2,3.7 14.8,5.8 22.8,6.8 5.1,0.6 10.2,0.1 14.9,-2 8.9,-3.9 10.3,-14.2 2.8,-20.4 -2.6,-2.1 -5.5,-3.7 -8.5,-5 -7.8,-3.4 -15.9,-6 -23.3,-10.4 -11.9,-7.1 -19.5,-17 -18.6,-31.5 1,-16.4 10.3,-26.7 25.3,-32.1 6.2,-2.3 6.2,-2.2 6.3,-8.7 0,-2.2 0,-4.4 0,-6.6 0.1,-4.9 1,-5.7 5.8,-5.9 1.5,0 3,0 4.5,0 10.4,0 10.4,0 10.4,10.4 0,7.3 0,7.4 7.3,8.5 5.6,0.9 10.9,2.5 16.1,4.8 2.9,1.3 3.9,3.3 3.1,6.3 -1.3,4.5 -2.5,9 -4,13.4 -1.4,4.2 -2.7,4.8 -6.7,2.9 -8.1,-3.9 -16.6,-5.6 -25.6,-5.1 -2.4,0.1 -4.6,0.4 -6.8,1.4 -7.7,3.4 -9,11.9 -2.4,17.2 3.3,2.7 7.1,4.6 11.1,6.2 6.8,2.8 13.7,5.6 20.3,9.2 20.7,11.5 26.3,37.5 11.7,55.2 -5.3,6.4 -12.1,10.7 -20.2,12.9 -3.5,1 -5.1,2.8 -4.9,6.4 0.2,3.6 0,7.1 0,10.7 0,3.2 -1.6,4.9 -4.8,5 -3.8,0.1 -7.7,0.1 -11.5,0 -3.4,-0.1 -5,-2 -5,-5.3 0,-2.6 0,-5.2 -0.1,-7.8 -0.1,-5.7 -0.2,-6 -5.8,-6.9 -7.1,-1.1 -14,-2.7 -20.5,-5.9 -4.9,-2.3 -5.4,-3.6 -4,-8.9 z"
   id="path2"
   inkscape:connector-curvature="0"
   style="fill:#00ffff" />
		<path
   d="m 426.2,251.8 h -14.1 v 0 c -9.3,-28.5 -27.5,-53.8 -51.8,-73.4 0,-0.9 -0.2,-1.9 -0.4,-2.8 -5.1,-17.9 1.2,-34.2 8.5,-45.9 5.1,-8.2 -1.5,-18.7 -11.1,-17.5 -21.5,2.7 -36.3,10.6 -46.5,19.5 -7,6.1 -12,14.3 -14.2,23.4 -15.4,63.8 -72.9,111.3 -141.4,111.3 -33.3,0 -63.9,-11.2 -88.4,-30 -8.5,18.4 -13.1,38.5 -13.1,59.6 0,11.4 1.4,22.5 4,33.2 v 0 c 0,0 0,0.2 0.1,0.5 2.7,11.1 6.8,21.8 12,31.9 6.9,14.9 16.9,32.3 30.7,46.4 19.9,20.5 23.3,45.9 23.8,56.9 v 4.7 c 0,0.2 0,0.4 0,0.6 0,0.1 0,0.1 0,0.1 v 0 c 0.4,5.4 4.9,9.7 10.4,9.7 h 63.2 c 5.7,0 10.4,-4.6 10.4,-10.4 V 454 c 9.2,1.2 18.6,1.9 28.1,1.9 7.5,0 14.8,-0.4 22.1,-1.2 v 14.9 c 0,5.7 4.6,10.4 10.4,10.4 h 63.4 c 5.7,0 10.4,-4.6 10.4,-10.4 V 454 c 0.1,-5.2 1.9,-25.9 21.5,-43.6 0.7,-0.6 1.4,-1.2 2.1,-1.8 0.2,-0.2 0.4,-0.3 0.6,-0.5 v 0 c 21.8,-19.4 37.9,-43.6 46.2,-70.6 h 13.3 c 10.6,0 19.2,-8.6 19.2,-19.2 V 271 c -0.2,-10.6 -8.8,-19.2 -19.4,-19.2 z m -79.1,3.4 c -8.7,0 -15.7,-7 -15.7,-15.7 0,-8.7 7,-15.7 15.7,-15.7 8.7,0 15.7,7 15.7,15.7 0,8.7 -7,15.7 -15.7,15.7 z"
   id="path4"
   inkscape:connector-curvature="0"
   style="fill:#00ffff" />
	</g>
</g>
<g
   id="g10"
   transform="translate(0,313.70067)">
</g>
<g
   id="g12"
   transform="translate(0,313.70067)">
</g>
<g
   id="g14"
   transform="translate(0,313.70067)">
</g>
<g
   id="g16"
   transform="translate(0,313.70067)">
</g>
<g
   id="g18"
   transform="translate(0,313.70067)">
</g>
<g
   id="g20"
   transform="translate(0,313.70067)">
</g>
<g
   id="g22"
   transform="translate(0,313.70067)">
</g>
<g
   id="g24"
   transform="translate(0,313.70067)">
</g>
<g
   id="g26"
   transform="translate(0,313.70067)">
</g>
<g
   id="g28"
   transform="translate(0,313.70067)">
</g>
<g
   id="g30"
   transform="translate(0,313.70067)">
</g>
<g
   id="g32"
   transform="translate(0,313.70067)">
</g>
<g
   id="g34"
   transform="translate(0,313.70067)">
</g>
<g
   id="g36"
   transform="translate(0,313.70067)">
</g>
<g
   id="g38"
   transform="translate(0,313.70067)">
</g>
</svg>