<?xml version="1.0" encoding="UTF-8" standalone="no"?>
<!-- Created with Inkscape (http://www.inkscape.org/) -->

<svg
   xmlns:dc="http://purl.org/dc/elements/1.1/"
   xmlns:cc="http://creativecommons.org/ns#"
   xmlns:rdf="http://www.w3.org/1999/02/22-rdf-syntax-ns#"
   xmlns:svg="http://www.w3.org/2000/svg"
   xmlns="http://www.w3.org/2000/svg"
   xmlns:sodipodi="http://sodipodi.sourceforge.net/DTD/sodipodi-0.dtd"
   xmlns:inkscape="http://www.inkscape.org/namespaces/inkscape"
   width="210mm"
   height="297mm"
   viewBox="0 0 210 297"
   version="1.1"
   id="svg37"
   inkscape:version="0.92.4 (5da689c313, 2019-01-14)"
   sodipodi:docname="drawing1.svg">
  <defs
     id="defs31" />
  <sodipodi:namedview
     id="base"
     pagecolor="#ffffff"
     bordercolor="#666666"
     borderopacity="1.0"
     inkscape:pageopacity="0.0"
     inkscape:pageshadow="2"
     inkscape:zoom="0.49497475"
     inkscape:cx="378.24222"
     inkscape:cy="492.21614"
     inkscape:document-units="mm"
     inkscape:current-layer="layer1"
     showgrid="false"
     inkscape:window-width="1920"
     inkscape:window-height="1051"
     inkscape:window-x="-9"
     inkscape:window-y="-9"
     inkscape:window-maximized="1" />
  <metadata
     id="metadata34">
    <rdf:RDF>
      <cc:Work
         rdf:about="">
        <dc:format>image/svg+xml</dc:format>
        <dc:type
           rdf:resource="http://purl.org/dc/dcmitype/StillImage" />
        <dc:title />
      </cc:Work>
    </rdf:RDF>
  </metadata>
  <g
     inkscape:label="Layer 1"
     inkscape:groupmode="layer"
     id="layer1">
    <path
       sodipodi:type="spiral"
       style="fill:#ff0000;fill-rule:evenodd;stroke:#000000;stroke-width:0.26458332"
       id="path45"
       sodipodi:cx="72.558296"
       sodipodi:cy="111.87479"
       sodipodi:expansion="1"
       sodipodi:revolution="3"
       sodipodi:radius="55.283215"
       sodipodi:argument="-17.912706"
       sodipodi:t0="0"
       d="m 72.558296,111.87479 c 1.641826,2.23323 -2.200341,3.31495 -3.711789,2.72882 -4.095928,-1.58837 -3.948683,-7.12278 -1.745855,-10.1524 3.940341,-5.41929 11.945948,-4.902793 16.59301,-0.76289 6.819751,6.07547 5.896393,16.8386 -0.220077,23.03362 -8.152293,8.25698 -21.756457,6.9075 -29.474232,-1.20304 -9.712033,-10.20629 -7.927784,-26.686451 2.18601,-35.914846 12.24916,-11.176823 31.623302,-8.953419 42.355454,3.168977 12.647473,14.285829 9.982413,36.564439 -4.151943,48.796069 -16.318677,14.12189 -41.508433,11.01365 -55.236676,-5.13491 -15.598903,-18.34903 -12.046457,-46.454438 6.117877,-61.677291 20.377637,-17.07774 51.401897,-13.080398 68.117895,7.100844 18.55793,22.405007 14.11519,56.350457 -8.08381,74.558507" />
    <path
       sodipodi:type="spiral"
       style="fill:#ffff00;fill-rule:evenodd;stroke:#000000;stroke-width:0.26458332"
       id="path47"
       sodipodi:cx="137.2551"
       sodipodi:cy="111.27644"
       sodipodi:expansion="1"
       sodipodi:revolution="3"
       sodipodi:radius="55.303387"
       sodipodi:argument="-16.662804"
       sodipodi:t0="0"
       d="m 137.2551,111.27644 c -1.60197,2.26324 -3.84116,-1.04282 -3.76165,-2.66257 0.21545,-4.38945 5.51572,-5.99594 9.0868,-4.86073 6.38783,2.03062 8.42352,9.79332 5.9598,15.51103 -3.61561,8.39099 -14.1244,10.91053 -21.93526,7.05888 -10.41065,-5.13365 -13.4221,-18.47389 -8.15795,-28.359492 6.62439,-12.440021 22.832,-15.946215 34.78372,-9.257022 14.47513,8.101509 18.47757,27.194934 10.3561,41.207944 -9.57089,16.51385 -31.56088,21.01348 -47.63218,11.45517 -18.554949,-11.03544 -23.55241,-35.92882 -12.55424,-54.056401 12.49681,-20.597704 40.29818,-26.093461 60.48063,-13.653318 22.64165,13.95596 28.63605,44.668579 14.75239,66.904859 -15.4135,24.68649 -49.03974,31.1798 -73.32909,15.85147" />
    <path
       sodipodi:type="spiral"
       style="fill:#00ff00;fill-rule:evenodd;stroke:#000000;stroke-width:0.26458332"
       id="path49"
       sodipodi:cx="157.81682"
       sodipodi:cy="172.59377"
       sodipodi:expansion="1"
       sodipodi:revolution="3"
       sodipodi:radius="54.948063"
       sodipodi:argument="-21.692307"
       sodipodi:t0="0"
       d="m 157.81682,172.59377 c -2.6329,-0.81112 -0.20562,-3.94928 1.34812,-4.37606 4.21054,-1.15655 7.36926,3.34936 7.40399,7.0723 0.0621,6.65946 -6.63544,10.98628 -12.79648,10.43192 -9.04158,-0.81355 -14.67597,-9.9536 -13.45985,-18.52065 1.62089,-11.41853 13.28153,-18.39455 24.24483,-16.48779 13.79619,2.39946 22.12764,16.61371 19.51572,29.96901 -3.16339,16.17506 -19.9482,25.86907 -35.69319,22.54365 -18.55492,-3.91889 -29.61571,-23.28413 -25.57158,-41.41736 4.66911,-20.93554 26.621,-33.36584 47.14154,-28.59952 23.31674,5.4158 37.1184,29.95856 31.62745,52.86572 -6.16003,25.69837 -33.29661,40.87274 -58.5899,34.65538 -28.08034,-6.90245 -44.628409,-36.63503 -37.68331,-64.31407" />
    <path
       sodipodi:type="spiral"
       style="fill:#000080;fill-rule:evenodd;stroke:#000000;stroke-width:0.26458332"
       id="path51"
       sodipodi:cx="105.82787"
       sodipodi:cy="211.08829"
       sodipodi:expansion="1"
       sodipodi:revolution="3"
       sodipodi:radius="54.674511"
       sodipodi:argument="-20.429932"
       sodipodi:t0="0"
       d="m 105.82787,211.08829 c -0.0263,-2.74117 3.68209,-1.3878 4.556,-0.0437 2.36826,3.64256 -0.94959,7.99824 -4.46871,9.15565 -6.294874,2.07034 -12.41996,-2.97252 -13.755287,-8.98107 -1.959647,-8.81778 5.003932,-16.92028 13.493417,-18.35493 11.31516,-1.91218 21.45093,7.03587 22.95458,18.00577 1.8922,13.80451 -9.06745,25.99663 -22.51813,27.55423 -16.290572,1.88646 -30.550924,-11.09871 -32.153868,-27.03049 -1.889014,-18.77504 13.12975,-35.1106 31.542838,-36.75351 21.25865,-1.89681 39.67388,15.16064 41.35317,36.05519 1.90811,23.74172 -17.19144,44.23966 -40.56756,45.95281 -26.224461,1.92189 -48.807268,-19.22217 -50.552449,-45.07991 -1.937481,-28.70699 21.252853,-53.37626 49.592259,-55.1521" />
    <path
       sodipodi:type="spiral"
       style="fill:#800080;fill-rule:evenodd;stroke:#000000;stroke-width:0.26458332"
       id="path53"
       sodipodi:cx="53.135212"
       sodipodi:cy="173.56192"
       sodipodi:expansion="1"
       sodipodi:revolution="3"
       sodipodi:radius="54.914238"
       sodipodi:argument="-19.167091"
       sodipodi:t0="0"
       d="m 53.135212,173.56192 c 2.615668,-0.85966 2.449278,3.10174 1.428805,4.34741 -2.765418,3.37569 -7.944471,1.5261 -10.123631,-1.4898 -3.898005,-5.39474 -0.936041,-12.79252 4.40841,-15.89985 7.843198,-4.56013 17.718364,-0.36179 21.676067,7.32702 5.274996,10.24797 -0.203734,22.6734 -10.245625,27.45228 -12.636695,6.01374 -27.642742,-0.76433 -33.228503,-13.16423 -6.765105,-15.01794 1.322007,-32.62021 16.082841,-39.00472 17.395131,-7.52392 37.602763,1.87783 44.780939,19.00145 8.287488,19.76989 -2.432425,42.5887 -21.920056,50.55716 -22.143087,9.05426 -47.577027,-2.98616 -56.3333757,-24.83867 -9.82330001,-24.51521 3.5392697,-52.56708 27.7572717,-62.10959 26.886572,-10.594 57.558434,4.09192 67.885815,30.67588" />
  </g>
</svg>
